<?xml version="1.0" encoding="UTF-8" standalone="no"?>
<!-- Created with Inkscape (http://www.inkscape.org/) -->

<svg
   xmlns:dc="http://purl.org/dc/elements/1.1/"
   xmlns:cc="http://creativecommons.org/ns#"
   xmlns:rdf="http://www.w3.org/1999/02/22-rdf-syntax-ns#"
   xmlns:svg="http://www.w3.org/2000/svg"
   xmlns="http://www.w3.org/2000/svg"
   xmlns:sodipodi="http://sodipodi.sourceforge.net/DTD/sodipodi-0.dtd"
   xmlns:inkscape="http://www.inkscape.org/namespaces/inkscape"
   width="200"
   height="200"
   id="svg2985"
   version="1.1"
   inkscape:version="0.48.4 r9939"
   sodipodi:docname="Новый документ 1">
  <defs
     id="defs2987" />
  <sodipodi:namedview
     id="base"
     pagecolor="#ffffff"
     bordercolor="#666666"
     borderopacity="1.0"
     inkscape:pageopacity="0.0"
     inkscape:pageshadow="2"
     inkscape:zoom="0.7"
     inkscape:cx="300.32668"
     inkscape:cy="225.58354"
     inkscape:document-units="px"
     inkscape:current-layer="layer1"
     showgrid="false"
     inkscape:window-width="1313"
     inkscape:window-height="744"
     inkscape:window-x="53"
     inkscape:window-y="24"
     inkscape:window-maximized="1" />
  <metadata
     id="metadata2990">
    <rdf:RDF>
      <cc:Work
         rdf:about="">
        <dc:format>image/svg+xml</dc:format>
        <dc:type
           rdf:resource="http://purl.org/dc/dcmitype/StillImage" />
        <dc:title></dc:title>
      </cc:Work>
    </rdf:RDF>
  </metadata>
  <g
     inkscape:label="Layer 1"
     inkscape:groupmode="layer"
     id="layer1"
     transform="translate(0,-852.36218)">
    <g
       id="g3020"
       transform="matrix(1.029698,0,0,1.029698,-2.9910115,-30.357151)">
      <g
         transform="matrix(1.6492409,0,0,1.6492409,-38.212994,793.65227)"
         id="g3649">
        <path
           style="fill:#ed1c24;fill-rule:evenodd"
           inkscape:connector-curvature="0"
           d="m 67.131,65.46 c 7.427,-1.788 16.051,-0.281 19.186,11.035 l 0.713,0 c -0.384,0 -1.207,-3.997 -1.306,-6.115 -1.883,-1.721 -3.765,-3.442 -5.646,-5.165 -1.1,-2.808 -1.622,-5.561 -1.77,-8.371 -0.346,-0.306 -0.554,-1.593 -0.568,-1.807 l -0.338,-0.028 c -0.148,0.25 -0.355,0.428 -0.689,0.491 -0.653,0.038 -1.182,-0.392 -1.109,-1.107 0.053,-0.536 0.639,-0.903 1.18,-0.774 0.271,0.048 0.502,0.271 0.618,0.504 l 0.521,-0.054 c -0.205,-1.209 2.842,-2.267 2.915,-0.892 0.276,-0.173 0.317,0.459 0.436,0.73 0.021,-1.156 0.677,-2.541 0.867,-2.833 l 0.008,2.537 c 10.221,0.004 27.275,-0.806 30.288,1.054 -3.026,1.265 -19.9,0.695 -30.279,1.113 l 0,2.004 c -0.505,-0.79 -0.781,-1.647 -0.847,-2.595 -0.078,0.579 -0.164,0.7 -0.164,0.716 0,0.015 2.212,6.617 2.545,7.382 2.026,0.491 4.606,2.81 5.3,1.665 -0.243,-0.788 -0.2,-0.945 -0.262,-1.821 L 88.157,63.3 c -0.551,-0.925 -0.297,-3.106 0.406,-3.881 l 0.545,0.332 c 1.35,-1.817 2.312,-1.72 3.798,-1.317 4.041,-3.037 5.222,1.586 10.215,0.11 l 1.193,1.914 c -3.767,4.648 -7.534,-2.829 -10.88,-1.746 3.82,4.64 -3.626,7.807 2.889,7.706 l -0.168,0.332 c 1.428,0.108 2.66,1.706 3.313,3.163 l 3.151,-0.419 c 1.017,9.841 0.643,11.703 -3.682,14.779 -2.15,-0.841 -2.353,-0.851 -3.641,-1.82 l -0.327,0.785 c 0.747,-0.567 1.369,0.36 1.296,2.02 4.663,1.204 10.618,-1.151 13.588,3.925 7.14,-4.706 14.209,-0.075 12.946,6.354 -1.183,6.003 1.077,6.731 2.467,8.874 -3.609,-0.704 -4.729,-3.533 -4.718,-3.483 0.34,1.565 1.618,2.663 2.458,3.416 -1.94,-0.387 -3.222,-1.746 -4.043,-3.208 0.406,0.883 0.82,1.777 1.14,2.706 -1.019,-0.76 -1.819,-1.702 -2.299,-2.912 l 0.431,2.268 c -0.627,-1.079 -2.295,-2.316 -2.094,-3.86 0.804,-6.143 -3.641,-10.335 -5.566,-8.388 5.121,8.283 -5.292,12.672 6.51,14.491 1.864,4.891 5.737,9.272 5.737,9.272 l 0,1.397 -0.653,-0.046 -0.281,0.697 1.305,0.655 1.28,1.264 c -1.077,1.953 -2.898,3.147 -5.347,3.58 l -1.108,-0.886 0.447,-1.723 c 0.961,-1.475 -0.082,-1.953 0.99,-3.686 -1.554,-5.013 -5.318,-6.801 -5.318,-6.801 1.88,2.219 3.29,4.806 4.484,7.56 l -1.341,0.257 -0.314,0.571 c 0.507,0.586 0.793,1.303 0.998,2.196 -1.343,1.284 -3.258,1.732 -5.742,1.34 l -0.712,-1.141 0.972,-1.256 c 0.198,-0.112 0.634,-0.468 0.712,-0.682 0.314,-0.867 0.515,-1.589 1,-2.341 -1.229,-6 -4.858,-7.965 -5.798,-8.017 -1.059,-0.057 -3.658,-0.285 -4.999,-0.856 0.971,2.966 1.257,5.336 1.029,7.16 -1.486,-0.997 -4.801,-6.019 -6.143,-8.93 l -1.4,0.058 c 1.618,3.34 3.159,6.816 3.371,10.13 -2.042,-1.111 -4.169,-3.425 -6.854,-9.531 l -1.373,0.115 c 1.278,3.318 3.153,8.12 3.4,9.899 -2.751,-1.343 -5.023,-3.523 -6.63,-7.074 -0.165,4.856 -0.526,8.052 -1.139,8.616 -0.66,-0.51 -1.142,-9.459 -1.361,-15.665 -3.076,0.498 -5.848,0.122 -8.349,-0.792 -0.568,0.543 -0.755,0.87 -1.154,1.358 -0.536,0.654 -0.05,1.298 -0.125,2.111 l 2.273,0.804 1.636,-2.915 0.243,2.629 2.478,1.545 -2.788,0.375 -1.148,2.253 -0.509,-3.423 -2.3,-0.464 c -0.353,1.479 -1.88,0.133 -2.697,0.088 l 0,0.487 -3.937,-0.575 0.331,-0.617 -4.688,-0.51 c 2.094,-1.786 4.642,-2.554 7.785,-3.256 -0.221,-0.24 -0.11,-0.62 -0.132,-0.565 -8.027,2.32 -8.924,-5.765 -16.911,-4.121 -0.867,1.438 -0.417,2.471 -0.234,2.881 l -0.447,0.313 0.385,0.788 2.327,0.483 c 0.321,1.58 0.314,3.167 0.024,4.835 -3.042,-1.455 -5.50699,-3.763 -5.55599,-7.507 -1.364,0.88 -3.114,2.828 -3.727,3.717 l -0.664,-0.275 -0.779,0.299 0.55,2.037 c -1.505,1.021 -3.164,1.838 -4.974002,2.495 -0.107,-4.69 4.551002,-9.474 9.643002,-12.211 0.147,-1.404 1.26099,-1.427 1.70099,-3.48 0.317,-1.475 1.984,-1.922 3.587,-1.609 1.923,0.728 4.988,1.796 7.839,1.613 0.328,-2.783 0.829,-3.349 2.589,-6.177 -1.302,0.359 -1.117,0.123 -2.9,-0.159 -1.047,-1.335 -1.539,-2.902 -1.097,-3.846 -0.719,0.721 -0.897,0.108 -1.748,0.479 -0.219,0.097 -0.392,-0.071 -0.375,-0.307 0.05,-0.703 0.322,-1.253 0.691,-1.744 -0.978,0.552 -1.318,2.268 -2.284,1.278 -3.827,-1.434 4.468,-9.92 7.624,-12.369 z m -2.299,14.379 c 0.306,-0.394 0.942,-1.465 1.565,-1.376 2.863,0.421 3.789,0.466 5.379,-1.936 -0.078,1.15 -0.602,3.114 -1.236,4.317 -2.288,0.172 -3.492,-0.579 -5.708,-1.005"
           id="shape0" />
        <path
           style="fill:#ffffff;fill-rule:evenodd"
           inkscape:connector-curvature="0"
           d="m 96.943,72.11 1.298,-0.186 0.138,1.797 1.821,-0.406 0.165,1.22 -1.858,0.214 0.218,1.677 2.701,-0.492 0.188,1.31 -2.736,0.243 0.582,3.629 -1.295,0.166 -0.39,-3.657 -2.684,0.47 -0.176,-1.301 2.728,-0.222 -0.218,-1.679 -1.879,0.294 -0.161,-1.235 1.915,-0.076 -0.357,-1.766"
           id="shape1" />
      </g>
      <path
         id="shape3"
         d="m 4.5076667,1006.5545 0,1.1015 2.20591,0.5177 c 0.195172,0.033 0.713987,0.228 0.713987,1.1028 l 0,17.2377 c 0,0.8752 -0.518815,1.0704 -0.713987,1.1015 l -2.20591,0.5188 0,1.1005 9.0833273,0 0,-1.1005 -2.20591,-0.5188 c -0.194629,-0.031 -0.712902,-0.2263 -0.712902,-1.1015 l 0,-18.2103 10.18655,0 0,18.2103 c 0,0.8752 -0.519908,1.0704 -0.713437,1.1015 l -2.205368,0.5188 0,1.1005 9.08332,0 0,-1.1005 -2.20701,-0.5188 c -0.194065,-0.031 -0.712337,-0.2263 -0.712337,-1.1015 l 0,-17.2377 c 0,-0.8748 0.518272,-1.0694 0.712337,-1.1028 l 2.20701,-0.5177 0,-1.1015 z m 33.6752453,12.9609 -2.88709,0.6484 c -1.622587,0.3559 -3.082261,0.7774 -4.154333,1.6521 -1.166631,0.9715 -1.523624,2.1387 -1.523624,3.5316 0,1.1022 0.259672,2.3978 1.330102,3.3704 0.745144,0.6845 1.719352,0.978 2.563439,0.978 1.03763,0 2.20591,-0.4215 2.983854,-0.8807 0.713444,-0.422 1.395716,-0.972 1.915073,-1.5236 0.09624,0.5193 0.323095,1.1016 0.551623,1.4908 0.356436,0.5566 0.810744,0.9135 1.556966,0.9135 0.875808,0 1.849474,-0.557 2.400539,-0.9135 l 0,-0.9715 c -0.324736,0.2586 -0.778487,0.4538 -1.136023,0.4538 -0.259685,0 -0.388708,-0.1302 -0.551072,-0.3887 -0.226886,-0.4209 -0.259686,-0.843 -0.259686,-1.2312 l 0,-10.4992 c 0,-0.8424 -0.129008,-1.8795 -1.103223,-2.6897 -0.972023,-0.8102 -2.399989,-0.8742 -3.115053,-0.8742 -1.394081,0 -3.016669,0.3548 -4.218291,1.0043 -1.263417,0.7118 -2.399447,2.008 -2.399447,3.1752 0,0.9408 0.746237,0.972 1.103772,0.972 0.58333,0 1.167195,-0.1951 1.880632,-0.5183 -0.291386,-1.4257 0.324736,-2.2031 0.811843,-2.5924 0.583866,-0.4537 1.556974,-0.7462 2.368275,-0.7462 0.356437,0 1.10378,0.064 1.524731,0.6817 0.291929,0.421 0.356993,1.1333 0.356993,1.5876 z m 0,4.2445 c 0,0.7779 -0.161822,1.8796 -1.07098,2.9161 -0.713979,0.8108 -1.654288,1.2 -2.497296,1.2 -0.779037,0 -1.395159,-0.3248 -1.784952,-1.0704 -0.293571,-0.55 -0.422051,-1.2629 -0.422051,-1.9435 0,-0.8747 0.162921,-1.75 1.006472,-2.4306 0.583316,-0.4855 1.654289,-0.8425 2.53009,-1.0688 l 2.238717,-0.5511 z m 10.965579,-11.1782 c -0.780686,0.2903 -2.239253,0.8091 -4.47742,1.1011 l 0,0.972 1.622031,0.3892 c 0.06453,0.031 0.648936,0.1613 0.648936,0.778 l 0,19.0571 c 0,0.6162 -0.584415,0.7457 -0.648936,0.778 l -1.622031,0.3898 0,0.9714 7.980632,0 0,-0.9714 -2.27151,-0.3898 c -0.388158,-0.064 -0.648929,-0.3882 -0.648929,-0.778 l 0,-6.2908 c 1.103779,0.9447 2.72581,1.1076 3.407546,1.1076 1.491931,0 3.244076,-0.6215 4.509121,-1.8527 1.201094,-1.1672 2.465596,-3.3387 2.465596,-7.2267 0,-2.4623 -0.518815,-4.8596 -1.784952,-6.3187 -0.777951,-0.8731 -2.076346,-1.7161 -4.152149,-1.7161 -1.069873,0 -2.076881,0.2253 -3.082254,0.8742 -0.874709,0.5516 -1.426324,1.1989 -1.686552,1.5231 l 0,-2.3973 z m 0.582773,5.5413 c 0,-0.8763 0.09732,-2.0102 1.006458,-2.9499 0.454307,-0.4855 1.201094,-0.972 2.302132,-0.972 1.16883,0 2.272067,0.4214 3.017747,1.7816 0.681722,1.2322 1.006472,3.436 1.006472,5.2833 0,0.7117 -0.03284,3.7251 -1.102688,5.4423 -0.681729,1.0703 -1.654295,1.6849 -3.082261,1.6849 -1.784952,0 -2.854832,-1.1661 -3.14786,-1.4908 z m 12.393002,-5.0881 0,5.4429 1.103772,0 0.519365,-2.1376 c 0.129565,-0.4859 0.259129,-1.0047 0.551058,-1.3612 0.324187,-0.3893 0.64893,-0.5183 1.069331,-0.5183 l 2.174204,0 0,12.7013 c 0,0.3892 -0.25913,0.714 -0.64837,0.778 l -1.622599,0.3247 0,0.9703 7.331709,0 0,-0.9703 -1.62039,-0.3247 c -0.3898,-0.064 -0.65002,-0.3888 -0.65002,-0.778 l 0,-12.7013 2.17365,0 c 0.42205,0 0.74624,0.129 1.07043,0.5183 0.29248,0.3565 0.42205,0.8753 0.55161,1.3612 l 0.51882,2.1376 1.10377,0 0,-5.4429 z m 15.70213,0 0,0.9726 1.2984,0.3236 c 0.38869,0.097 0.64892,0.3565 0.64892,0.7764 l 0,12.0545 c 0,0.3892 -0.26023,0.714 -0.64892,0.778 l -1.62259,0.3247 0,0.9703 8.56396,0 c 1.2656,0 2.72581,-0.1606 4.02367,-1.1655 1.13493,-0.8747 1.55698,-1.9118 1.55698,-3.3359 0,-1.8812 -0.81074,-2.9499 -1.52472,-3.5661 -1.13658,-0.9714 -2.95215,-1.3284 -4.63925,-1.3284 -1.00536,0 -2.07634,0.1613 -2.91935,0.3247 l 0,-5.0563 c 0,-0.4199 0.25969,-0.6796 0.64784,-0.7764 l 1.29785,-0.3236 0,-0.9726 z m 4.7371,8.4252 c 0.77849,-0.228 1.49193,-0.3243 2.30268,-0.3243 0.8769,0 1.94732,0.064 2.82258,0.907 0.81183,0.7774 0.97257,1.6859 0.97257,2.4617 0,1.0054 -0.29085,1.9124 -1.10105,2.593 -0.94249,0.7785 -2.17474,0.8425 -2.88873,0.8425 -0.87525,0 -1.49192,-0.1614 -2.10805,-0.4532 z m 9.86127,-8.4252 0,0.9726 1.29784,0.3236 c 0.3898,0.097 0.64948,0.3565 0.64948,0.7764 l 0,12.0545 c 0,0.4226 -0.25968,0.6812 -0.64948,0.778 l -1.29784,0.3247 0,0.9703 6.68387,0 0,-0.9703 -1.29784,-0.3247 c -0.3898,-0.097 -0.64838,-0.3554 -0.64838,-0.778 l 0,-12.0545 c 0,-0.4199 0.25858,-0.6796 0.64838,-0.7764 l 1.29784,-0.3236 0,-0.9726 z m 14.697314,8.4896 c -0.29302,0.064 -1.71991,0.3559 -2.43389,2.0397 l -1.23278,2.9177 c -0.35699,0.843 -0.67954,1.7177 -1.49193,1.7177 -0.32474,0 -0.77794,-0.1951 -1.10269,-0.4543 l 0,0.9726 c 0.71345,0.6845 1.6543,0.9135 2.27043,0.9135 1.03817,0 2.2059,-0.6872 2.82257,-2.2742 l 1.26559,-3.3048 c 0.22633,-0.5838 0.71345,-1.4585 1.19946,-1.8467 0.64836,-0.5199 1.49301,-0.5516 1.91615,-0.5516 l 1.16665,0 0,5.5079 c 0,0.4226 -0.25968,0.6812 -0.64838,0.778 l -1.29949,0.3247 0,0.9703 6.68442,0 0,-0.9703 -1.29785,-0.3247 c -0.38979,-0.097 -0.64838,-0.3554 -0.64838,-0.778 l 0,-12.0545 c 0,-0.4199 0.25859,-0.6796 0.64838,-0.7764 l 1.29785,-0.3236 0,-0.9726 -3.30968,0 c -0.61613,0 -1.10268,-0.032 -1.68655,-0.098 -0.71398,-0.064 -1.13549,-0.096 -2.07634,-0.096 -1.42742,0 -3.04947,0.096 -4.31505,0.8425 -1.16829,0.6806 -2.1086,1.9762 -2.1086,3.7585 0,1.4903 0.64947,2.4306 1.42742,3.0139 0.74623,0.5511 1.84946,0.9075 2.91989,0.9403 z m 4.37956,-1.3935 c -0.61612,0.1296 -1.36237,0.2269 -2.04409,0.2269 -1.3629,0 -2.2059,-0.3887 -2.66022,-0.7451 -0.64892,-0.5183 -1.00591,-1.2323 -1.00591,-2.2683 0,-1.5225 0.8113,-2.2687 1.2328,-2.5602 0.71398,-0.4865 1.71989,-0.6478 2.69246,-0.6478 0.51992,0 1.23334,0.064 1.78496,0.1613 z m 14.69621,-13.5765 0,1.1015 2.20647,0.5177 c 0.19406,0.033 0.71342,0.228 0.71342,1.1028 l 0,17.2377 c 0,0.8752 -0.51936,1.0704 -0.71342,1.1015 l -2.20647,0.5188 0,1.1005 10.18655,0 c 2.07579,0 4.37848,-0.6144 5.83869,-1.8138 1.03871,-0.8742 2.1414,-2.3967 2.1414,-4.7956 0,-1.8785 -0.68064,-3.5645 -2.36773,-4.9236 -1.88172,-1.4908 -4.08817,-1.751 -5.87204,-1.751 -1.10322,0 -2.5629,0.1295 -3.7629,0.3242 l 0,-7.9713 6.29355,0 c 0.4882,0 1.2645,0.098 1.68709,0.3881 0.29194,0.1946 0.58387,0.5845 0.68173,1.0377 l 0.4215,2.0091 1.29731,0 0,-5.1843 z m 6.16397,11.4701 c 0.97313,-0.2914 2.14087,-0.5177 3.27635,-0.5177 1.88117,0 3.08171,0.6161 3.76289,1.23 0.87635,0.8108 1.52527,2.2043 1.52527,3.857 0,1.7821 -0.64892,3.0127 -1.52527,3.7907 -0.68118,0.6161 -1.91344,1.2962 -4.02257,1.2962 -1.19999,0 -2.1403,-0.2596 -3.01667,-0.6478 z m 14.59837,-11.4701 0,1.1015 2.20645,0.5177 c 0.19517,0.033 0.71399,0.228 0.71399,1.1028 l 0,17.2377 c 0,0.8752 -0.51882,1.0704 -0.71399,1.1015 l -2.20645,0.5188 0,1.1005 9.08387,0 0,-1.1005 -2.20591,-0.5188 c -0.19463,-0.031 -0.71399,-0.2263 -0.71399,-1.1015 l 0,-8.4246 10.38116,0 0,8.4246 c 0,0.8752 -0.51771,1.0704 -0.71288,1.1015 l -2.20645,0.5188 0,1.1005 9.08441,0 0,-1.1005 -2.20646,-0.5188 c -0.19462,-0.031 -0.71398,-0.2263 -0.71398,-1.1015 l 0,-17.2377 c 0,-0.8748 0.51936,-1.0694 0.71398,-1.1028 l 2.20646,-0.5177 0,-1.1015 -9.08441,0 0,1.1015 2.20645,0.5177 c 0.19517,0.033 0.71288,0.228 0.71288,1.1028 l 0,7.0637 -10.38116,0 0,-7.0637 c 0,-0.8748 0.51936,-1.0694 0.71399,-1.1028 l 2.20591,-0.5177 0,-1.1015 z m 33.28599,-1.6205 0,1.1016 2.20591,0.5189 c 0.19517,0.032 0.71398,0.2262 0.71398,1.1015 l 0,0.7769 -0.64946,0 c -2.14086,0 -4.63925,0.4865 -6.35806,1.6198 -1.88281,1.2329 -3.50484,3.565 -3.50484,6.9337 0,3.3715 1.62203,5.7048 3.50484,6.9359 1.71881,1.1338 4.2172,1.6204 6.35806,1.6204 l 0.64946,0 0,0.9715 c 0,0.8752 -0.51881,1.0704 -0.71398,1.1015 l -2.20591,0.5188 0,1.1005 9.08331,0 0,-1.1005 -2.2059,-0.5188 c -0.19408,-0.031 -0.71454,-0.2263 -0.71454,-1.1015 l 0,-0.9715 0.65003,0 c 2.1403,0 4.63924,-0.4866 6.35805,-1.6204 1.88226,-1.2311 3.50376,-3.5644 3.50376,-6.9359 0,-3.3687 -1.6215,-5.7008 -3.50376,-6.9337 -1.71881,-1.1333 -4.21775,-1.6198 -6.35805,-1.6198 l -0.65003,0 0,-0.7769 c 0,-0.8753 0.52046,-1.0693 0.71454,-1.1015 l 2.2059,-0.5189 0,-1.1016 z m 2.91989,19.0534 -0.51881,0 c -2.59625,0 -4.25,-1.3618 -4.38066,-1.4586 -1.16719,-0.972 -2.17475,-2.6897 -2.17475,-5.5424 0,-2.8499 1.00756,-4.5687 2.17475,-5.5396 0.13066,-0.097 1.78441,-1.457 4.38066,-1.457 l 0.51881,0 z m 3.24298,-13.9976 0.52046,0 c 2.59516,0 4.25001,1.3597 4.37902,1.457 1.16829,0.9709 2.1742,2.6897 2.1742,5.5396 0,2.8527 -1.00591,4.5704 -2.1742,5.5424 -0.12901,0.097 -1.78386,1.4586 -4.37902,1.4586 l -0.52046,0 0,-13.9976"
         inkscape:connector-curvature="0"
         style="fill:#ed1c24;fill-rule:evenodd" />
    </g>
  </g>
</svg>
